<?xml version="1.0" encoding="UTF-8"?>
<svg width="91px" height="24px" version="1.1" xmlns="http://www.w3.org/2000/svg" xmlns:xlink="http://www.w3.org/1999/xlink">
    <title>Shape</title>
    <desc>Created with Sketch.</desc>
    <defs></defs>
    <g id="Page-1" stroke="none" stroke-width="1" fill="none" fill-rule="evenodd">
        <g fill="#75fc19" fill-rule="nonzero">
            <path d="M6.3,23.6 L89.6,23.6 L91,20.6 L91,16.2 L90.8,16.2 L90.8,20.6 L77.4,20.6 L76.8,19.2 L75.2,19.2 L75.2,18.8 L76.5,18.8 L76.5,18.6 L75.2,18.6 C75.2,18.6 74.9,18.1 74.2,18.1 C73.4,18.1 73.4,18.2 73.4,18.4 L73.4,19.2 L72.4,19.2 C72.4,19.2 72.4,18.5 72.1,18.4 C71.9,18.3 71.4,18.3 71.4,18.3 L71.4,17.8 L72.5,17.8 L72.5,17.6 L71.2,17.6 C71.2,17.6 70.5,17.2 70,17.2 C69.5,17.2 69.2,17.2 69.2,17.5 L69.2,18.3 L68.5,18.3 L68.4,18 L68.4,17.3 L68.8,16.7 L68.8,16.3 L68.1,16.3 L68.1,15.9 L66.7,15.9 L66.7,15.6 C66.7,15.6 67.2,15.4 67.4,15.4 L67.6,15.4 L67.6,15.3 L67.2,15.3 C67.2,15.3 66.9,15 66.6,15 C66.3,15 66.1,15.3 66.1,15.4 C66.1,15.5 66.4,15.6 66.4,15.6 L66.4,15.9 L66.1,15.9 L66.1,16.4 L65.1,16.4 L64.8,16.1 L64.8,15.7 L65.4,15.2 L65.4,14.9 L64.5,14.9 L64.5,14.1 L64,14.1 L64,13.7 C64,13.7 64.4,13.4 64.4,13.2 C64.4,13 64.1,12.8 63.7,12.8 C63.3,12.8 63,13.6 63,13.6 L63.2,13.9 L63.2,14.2 L63,14.3 L63,15 L62.4,15 L62.4,15.3 L61.7,15.3 L61.4,14 L62,13.7 L61.3,13.6 L61,13.1 L61,12.6 L62.5,12.4 L62.5,12 L62.4,12 L62.3,12.2 L60.9,12.3 L60.7,10.6 L60.6,10.6 L60.5,12.3 L58.8,12.4 L58.6,10 L59.1,9.9 L59.5,9.6 L59.5,9.5 L58.8,9.5 L58.6,3.3 L58.5,3.3 L58.4,9.5 L57.2,9.5 L57.2,9.7 L57.8,9.7 L58.2,10.1 L58.2,12.3 L58,12.3 L58,12.6 L58.2,12.6 L59,15.5 L58.5,13 L58.4,12.4 L59.1,12.5 L59.9,12.8 L59.7,13.7 L59,13.7 L59,13.9 L59.6,13.9 L59.2,15.3 L58.4,15.3 L58.4,16.3 L57.7,16.5 L56.7,16 L56.5,16.1 L56.7,16.3 L57.5,16.7 L57.5,17.3 L57.2,17.3 C57.2,17.3 57.1,17 56.9,17 C56.6,17 56.7,17.3 56.7,17.3 L56,17.3 L56,16.4 L55.8,16.4 L55.8,16.9 L55.6,17.3 L55.1,17.3 C55.1,17.3 55,16.8 54.7,16.9 C54.4,16.9 54.4,17.3 54.4,17.3 L53.7,17.3 L53.2,13.3 L53.6,13.1 L53.6,12.8 L53.1,12.8 L53.1,11.8 C53.1,11.8 53.9,11.1 53.9,10.7 C53.9,10.3 52.4,9 52.4,9 L52.4,8.6 L51.9,8.6 L51.9,9 L50.6,9 L50.4,6.8 C50.4,6.8 50.4,6.7 50.6,6.8 C50.8,6.8 50.9,7.4 51.1,7.4 C51.3,7.4 52,7.3 52,7.2 C52,7.2 52,7 51.8,6.7 C51.6,6.4 50.3,5.8 50.3,5.8 L50.4,1.7 C50.4,1.7 50.8,1.4 51.2,1.6 C51.6,1.8 52.1,1.9 52.2,1.9 C52.3,1.9 52.7,1.8 52.7,1.8 L52.5,0.5 C52.5,0.5 52.4,0.6 52.1,0.6 C51.8,0.6 51.1,0.3 50.9,0.3 C50.7,0.3 50.4,0.5 50.4,0.5 C50.4,0.5 50.4,0.4 50.3,0.4 C50.2,0.4 50.2,0.6 50.2,0.6 L50.2,5.4 L49.8,5.3 C49.8,5.3 49.3,4.9 49.2,4.9 C49.1,4.9 49.1,5.2 49.1,5.2 C49.1,5.2 48,7.9 48.2,8 C48.3,8.1 48.9,8.3 49.1,8.3 C49.3,8.3 50,7 50,7 L49.8,8.9 L48.5,8.9 L48,8.6 L47.6,8.7 L47.3,9 C47.3,9 49.2,9.9 49.3,10.1 C49.3,10.3 48.9,10.9 48.9,10.9 L48.2,11.1 L47.9,11.2 L47.8,10.5 L47.3,10.4 C47.3,10.4 47.4,9.9 47.1,9.9 C46.8,9.9 46.7,10.3 46.8,10.4 C47,10.5 47.1,10.6 47.1,10.6 L47.6,10.7 C47.6,10.7 47.6,11.3 47.6,11.3 C47.6,11.3 47.4,11.3 47.4,11.3 L47.4,11.7 L48.5,11.7 L48.8,12 L48.5,15.4 L48.4,15.4 L48.3,14 C48.3,14 47.8,13.5 46.9,13.5 C46,13.5 45.8,13.5 45.8,13.5 L45.8,14.3 L45,14.3 L44.9,13.8 L44.6,13.6 L44.6,13.4 C44.6,13.4 45,13.3 45,13 C45,12.8 44.8,12.6 44.6,12.5 C44.5,12.4 44.3,12.3 44.3,12.3 L44.2,7.7 L44.1,7.7 L44.1,12.3 C44.1,12.3 43.5,12.5 43.5,12.9 C43.5,13.2 43.9,13.5 43.9,13.5 L43.9,13.7 L43.4,13.7 L43.4,14.6 L40.2,14.6 L40.2,16.2 L39.9,16.2 L39.8,16 L39.3,16 L39.3,16.5 L39.9,17 L39.9,17.7 L39.7,17.7 L39.7,18.3 L39.4,18.3 L39.4,17.7 L39,17.7 L39,16.6 L36.7,16.6 L36.3,15.9 L35.5,15.9 C35.5,15.9 35.3,15.9 35.3,16 C35.2,16.1 35.2,16.1 35.2,16.1 L33.5,16.1 L33.5,16.2 L34.8,16.2 C34.8,16.2 34.8,16.3 34.8,16.4 C34.8,16.4 34.9,16.5 34.9,16.5 L34.9,16.7 C34.9,16.7 34.7,16.8 34.6,16.8 C34.5,16.9 34.1,17.2 34.1,17.2 L33.2,17.2 L33.2,17.3 L33.7,17.3 L33.7,17.5 L34.1,17.5 C34.1,17.5 34.3,17.6 34.4,17.6 C34.5,17.6 34.5,17.8 34.5,17.8 L34.5,18.4 L34.3,18.4 L34.3,19.1 L31.7,19.1 L31.7,18.3 C31.7,18.3 32.3,18 32.3,17.2 C32.3,16.5 31.9,16.1 31.2,16.1 C30.5,16.1 29.6,16.1 29.6,16.1 C29.6,16.1 28.6,16.5 28.4,16.7 C28.2,17 28.1,17.2 28.1,17.2 L21.4,16.9 L21.4,17.2 L27.9,17.8 L27.9,18.5 L26.5,20 L19.7,19.7 C19.7,19.7 19.5,19.1 18.5,19.1 C17.6,19.1 0.5,18 0.5,18 C0.5,18 0.1,18 0.2,18.3 C0.3,18.5 2.4,19.5 3.8,21.1 C5.2,22.7 6.1,23.5 6.1,23.5 L6.3,23.6 Z" id="Shape"></path>
        </g>
    </g>
</svg>